<svg width="600" height="525" viewBox="0 0 600 525" fill="none" xmlns="http://www.w3.org/2000/svg">
<g clip-path="url(#clip0)">
<path opacity="0.2" d="M543.186 188.47H508.556V206.451H543.186V188.47Z" fill="#009688"/>
<path opacity="0.2" d="M545.85 210.447H511.219V228.428H545.85V210.447Z" fill="#009688"/>
<path opacity="0.2" d="M517.213 57.9395H482.583V75.9207H517.213V57.9395Z" fill="#009688"/>
<path opacity="0.2" d="M541.854 78.5846H507.224V96.5658H541.854V78.5846Z" fill="#009688"/>
<path opacity="0.2" d="M475.257 59.2714H440.626V77.2527H475.257V59.2714Z" fill="#009688"/>
<path opacity="0.2" d="M586.474 99.2297H551.844V117.211H586.474V99.2297Z" fill="#009688"/>
<path opacity="0.2" d="M544.518 100.562H509.887V118.543H544.518V100.562Z" fill="#009688"/>
<path opacity="0.2" d="M499.898 79.9165H465.267V97.8978H499.898V79.9165Z" fill="#009688"/>
<path opacity="0.2" d="M584.476 237.752H549.846V255.733H584.476V237.752Z" fill="#009688"/>
<path opacity="0.2" d="M542.52 239.084H507.89V257.065H542.52V239.084Z" fill="#009688"/>
<path d="M87.0757 183.808C87.0757 183.808 135.885 232.617 108.334 305.015C80.7823 377.412 155.558 497.907 155.558 497.907C155.558 497.907 154.758 497.787 153.273 497.527C53.0313 479.832 3.22331 365.185 58.9917 280.041C79.6901 248.347 96.699 211.206 87.0757 183.808Z" fill="#009688"/>
<path d="M87.0758 183.808C87.0758 183.808 114.627 243.639 87.0758 292.441C59.5245 341.244 82.354 478.247 155.564 497.907" stroke="#535461" stroke-width="2" stroke-miterlimit="10"/>
<path d="M0.139893 381.215C0.139893 381.215 55.8351 372.344 60.9098 422.259C65.9844 472.174 168.011 479.093 168.011 479.093C168.011 479.093 167.345 479.546 166.1 480.365C81.8612 535.641 1.33864 515.588 13.4793 442.165C17.9879 414.867 17.615 387.449 0.139893 381.215Z" fill="#009688"/>
<path d="M0.139893 381.215C0.139893 381.215 43.3681 390.705 39.8184 430.011C36.2688 469.316 104.018 516.461 168.011 479.093" stroke="#535461" stroke-width="2" stroke-miterlimit="10"/>
<path opacity="0.2" d="M35.0501 189.136H0.419556V207.117H35.0501V189.136Z" fill="#009688"/>
<path opacity="0.2" d="M59.691 209.781H25.0605V227.762H59.691V209.781Z" fill="#009688"/>
<path opacity="0.2" d="M246.829 0H212.198V17.9812H246.829V0Z" fill="#009688"/>
<path opacity="0.2" d="M519.877 331.654H485.247V349.635H519.877V331.654Z" fill="#009688"/>
<path opacity="0.2" d="M62.3549 231.758H27.7244V249.739H62.3549V231.758Z" fill="#009688"/>
<path opacity="0.2" d="M271.63 22H237V39.9812H271.63V22Z" fill="#009688"/>
<path opacity="0.2" d="M144.935 142.518H110.305V160.499H144.935V142.518Z" fill="#009688"/>
<path opacity="0.2" d="M169.576 163.163H134.946V181.144H169.576V163.163Z" fill="#009688"/>
<path opacity="0.2" d="M235.507 151.841H200.877V169.823H235.507V151.841Z" fill="#009688"/>
<path opacity="0.2" d="M232.63 44H198V61.9812H232.63V44Z" fill="#009688"/>
<path opacity="0.2" d="M172.24 185.14H137.61V203.121H172.24V185.14Z" fill="#009688"/>
<path opacity="0.2" d="M566.495 331.654H531.865V349.635H566.495V331.654Z" fill="#009688"/>
<path d="M479.932 260.468C477.69 247.989 476.315 235.37 475.816 222.701C475.374 212.267 471.714 202.226 465.34 193.954C458.966 185.681 450.19 179.583 440.214 176.496C436.577 175.377 432.575 174.331 428.153 173.392C389.393 165.161 377.619 172.347 376.28 173.292C375.147 171.231 374.161 169.093 373.33 166.892C373.263 166.666 373.204 166.439 373.137 166.226C380.808 158.046 385.482 147.508 386.396 136.331C392.863 129.778 396.639 121.866 396.639 113.348C396.639 106.023 393.842 99.1498 388.947 93.2026V81.6281C388.947 68.2804 383.645 55.4794 374.207 46.0412C364.768 36.603 351.967 31.3006 338.62 31.3006H334.537C327.928 31.3006 321.384 32.6024 315.278 35.1316C309.172 37.6608 303.624 41.3679 298.95 46.0412C294.277 50.7145 290.57 56.2626 288.041 62.3686C285.512 68.4746 284.21 75.019 284.21 81.6281V94.1017C279.768 99.8357 277.25 106.382 277.25 113.335C277.25 121.673 280.873 129.425 287.094 135.898C287.943 147.485 292.831 158.406 300.906 166.759C301.179 168.651 301.458 170.682 301.732 172.826L232.404 187.471C232.404 187.471 205.672 188.57 188.45 224.099C173.885 254.194 144.902 331.514 136.318 354.53C134.766 358.699 133.887 361.09 133.887 361.09C133.887 361.09 134.173 360.803 134.713 360.31L133.887 362.555C133.887 362.555 134.306 362.128 135.106 361.429C133.894 371.059 133.72 387.595 146.334 389.653C156.909 391.378 184.161 392.09 204.746 392.377H206.171C219.817 392.557 230.2 392.557 230.2 392.557V392.377H451.595V390.106C451.598 388.046 451.183 386.007 450.376 384.112L450.683 383.739C451.867 385.304 452.656 387.132 452.98 389.067C452.955 389.255 452.919 389.442 452.874 389.626L453.007 389.287C453.059 389.892 453.014 390.501 452.874 391.092C452.874 391.092 481.277 317.908 480.971 274.207C481.053 269.605 480.705 265.005 479.932 260.468V260.468ZM302.884 182.716C302.517 180.628 302.281 178.52 302.178 176.402C302.178 176.402 302.178 176.362 302.178 176.342C302.424 178.4 302.664 180.531 302.884 182.716ZM216.827 339.912V357.353L205.905 359.691L216.827 339.912Z" fill="url(#paint0_linear)"/>
<path d="M335.456 38.34C348.804 38.34 361.605 43.6423 371.043 53.0805C380.481 62.5188 385.784 75.3197 385.784 88.6674V110.138H285.129V88.6674C285.129 75.3197 290.431 62.5188 299.869 53.0805C309.308 43.6423 322.109 38.34 335.456 38.34V38.34Z" fill="#E14B5A"/>
<path d="M335.809 156.596C367.492 156.596 393.176 138.948 393.176 117.178C393.176 95.4072 367.492 77.7588 335.809 77.7588C304.126 77.7588 278.443 95.4072 278.443 117.178C278.443 138.948 304.126 156.596 335.809 156.596Z" fill="#E14B5A"/>
<path d="M299.034 155.364C299.034 155.364 311.022 218.012 299.034 234.908C287.047 251.804 335.663 258.49 335.663 258.49L385.984 240.189L393.023 195.136C393.023 195.136 362.388 177.888 368.735 143.044L299.034 155.364Z" fill="#E0AC69"/>
<path d="M447.559 366.544C447.559 366.544 450.729 380.27 433.481 382.734C423.296 384.232 412.939 384.108 402.793 382.367L398.99 347.89H439.115L447.559 366.544Z" fill="#E0AC69"/>
<path d="M142.984 348.975C142.984 348.975 135.365 379.937 152.614 382.734C169.863 385.531 233.196 385.551 233.196 385.551V348.922L204.52 355.049L177.601 329.236L142.984 348.975Z" fill="#E0AC69"/>
<path opacity="0.1" d="M301.737 178.603L234.334 192.855C234.334 192.855 208.641 193.914 192.098 228.052C175.556 262.189 139.653 359.687 139.653 359.687C139.653 359.687 170.288 328.713 206.177 361.799L230.112 318.51L224.831 387.145H410.29V354.759C410.29 354.759 449.003 375.524 446.193 387.139C446.193 387.139 479.325 301.775 472.166 262.982C470.011 250.989 468.689 238.862 468.21 226.686V226.686C467.787 216.659 464.271 207.008 458.145 199.058C452.018 191.108 443.581 185.25 433.992 182.286C430.503 181.214 426.667 180.208 422.404 179.309C382.633 170.865 372.457 179.309 372.457 179.309C372.457 179.309 364.751 204.376 364.891 215.738C365.064 230.343 344.126 240.026 344.126 240.026C344.126 240.026 313.152 232.634 311.747 226.653C310.342 220.673 299.26 185.643 301.737 178.603Z" fill="black"/>
<path d="M303.737 174.198L236.334 188.45C236.334 188.45 210.641 189.509 194.098 223.646C177.556 257.784 141.646 355.296 141.646 355.296C141.646 355.296 172.281 324.321 208.17 357.407L232.105 314.119L226.824 382.734H412.29V350.354C412.29 350.354 451.003 371.119 448.193 382.734C448.193 382.734 481.325 297.369 474.166 258.577C472.011 246.584 470.689 234.456 470.21 222.281V222.281C469.787 212.254 466.271 202.603 460.145 194.653C454.018 186.703 445.581 180.844 435.992 177.881C432.503 176.809 428.667 175.803 424.405 174.904C384.633 166.459 374.457 174.904 374.457 174.904C374.457 174.904 366.751 199.971 366.891 211.333C367.064 225.937 346.126 235.621 346.126 235.621C346.126 235.621 315.152 228.228 313.747 222.248C312.342 216.267 301.26 181.237 303.737 174.198Z" fill="#575988"/>
<path opacity="0.1" d="M371.612 171.208C368.781 163.192 368.146 154.564 369.774 146.221L300.073 158.534C300.073 158.534 301.079 163.802 302.218 171.694C306.721 176.367 312.128 180.075 318.11 182.593C324.091 185.111 330.523 186.386 337.012 186.341C343.502 186.295 349.915 184.93 355.861 182.329C361.807 179.727 367.161 175.944 371.599 171.208H371.612Z" fill="black"/>
<path d="M383.499 135.305C383.445 147.865 378.456 159.899 369.61 168.815C360.764 177.73 348.768 182.811 336.209 182.963C323.651 183.116 311.536 178.326 302.476 169.627C293.416 160.929 288.138 149.018 287.779 136.464C287.779 136.078 287.779 135.692 287.779 135.305C287.777 126.343 290.291 117.559 295.035 109.955C299.778 102.35 306.561 96.2299 314.611 92.2903C316.045 91.5888 317.519 90.9583 319.033 90.3989C326.908 87.5042 335.401 86.7146 343.674 88.108V88.108C354.277 89.9134 363.962 95.2398 371.165 103.227C378.368 111.214 382.669 121.396 383.373 132.129C383.457 133.181 383.499 134.24 383.499 135.305Z" fill="#E0AC69"/>
<g opacity="0.1">
<path opacity="0.1" d="M318.96 91.5244L319.027 91.4844C317.513 92.0439 316.039 92.6743 314.605 93.3758C306.554 97.3155 299.771 103.436 295.028 111.04C290.284 118.645 287.771 127.428 287.773 136.391C287.773 136.777 287.773 137.163 287.773 137.55C289.261 137.509 290.724 137.158 292.068 136.517C303.736 131.07 310.716 114.407 313.486 102.786C314.485 98.6236 315.424 93.9352 318.96 91.5244Z" fill="black"/>
<path opacity="0.1" d="M355.595 92.863C351.807 91.1225 347.805 89.8887 343.694 89.1935C347.066 89.9693 350.077 91.8607 352.239 94.5612C353.299 96.0024 354.177 97.568 354.856 99.223C348.486 96.4378 341.587 95.0696 334.636 95.2134C327.685 95.3571 320.848 97.0093 314.598 100.056C317.602 106.642 326.919 110.232 333.139 112.636C339.949 115.264 346.831 117.668 353.784 119.848L347.63 114.853L361.529 117.064C361.679 114.298 361.35 111.527 360.557 108.873C363.221 111.017 366.75 111.737 369.641 113.535C375.055 116.951 377.313 123.524 380.263 129.218C381.042 130.723 381.961 132.262 383.366 133.214C382.798 124.611 379.918 116.321 375.03 109.219C370.142 102.117 363.428 96.4663 355.595 92.863V92.863Z" fill="black"/>
</g>
<path d="M318.96 90.4389L319.027 90.3989C317.513 90.9583 316.039 91.5888 314.605 92.2903C306.554 96.2299 299.771 102.35 295.028 109.955C290.284 117.559 287.771 126.343 287.773 135.305C287.773 135.692 287.773 136.078 287.773 136.464C289.261 136.424 290.724 136.072 292.068 135.432C303.736 129.984 310.716 113.322 313.486 101.7C314.485 97.5648 315.424 92.8564 318.96 90.4389Z" fill="#201F1B"/>
<path d="M355.595 91.7841C351.807 90.0437 347.805 88.8099 343.694 88.1146C347.066 88.8904 350.077 90.7818 352.239 93.4823C353.299 94.9235 354.177 96.4891 354.856 98.1441C348.486 95.3589 341.587 93.9908 334.636 94.1345C327.685 94.2782 320.848 95.9304 314.598 98.9766C317.602 105.563 326.919 109.153 333.139 111.557C339.949 114.185 346.831 116.589 353.784 118.769L347.63 113.774L361.529 115.986C361.679 113.219 361.35 110.448 360.557 107.794C363.221 109.938 366.75 110.658 369.641 112.456C375.055 115.872 377.313 122.445 380.263 128.139C381.042 129.645 381.961 131.183 383.366 132.135C382.798 123.532 379.918 115.243 375.03 108.14C370.142 101.038 363.428 95.3874 355.595 91.7841V91.7841Z" fill="#201F1B"/>
<path opacity="0.1" d="M282.312 127.414C282.312 127.414 331.594 66.1442 388.607 127.414L383.679 113.688C383.679 113.688 356.927 74.6221 337.927 83.0533C318.927 91.4844 300.266 97.4848 300.266 97.4848L282.312 127.414Z" fill="black"/>
<path d="M282.312 126.328C282.312 126.328 331.594 65.0587 388.607 126.328L383.679 112.602C383.679 112.602 356.927 73.5365 337.927 81.9677C318.927 90.3989 300.266 96.3993 300.266 96.3993L282.312 126.328Z" fill="#E14B5A"/>
<path opacity="0.1" d="M241.834 258.317C241.834 258.317 231.278 286.474 246.056 311.814C260.834 337.155 233.037 347.717 233.037 347.717" fill="black"/>
<path opacity="0.1" d="M412.889 232.977C412.889 232.977 431.19 256.206 419.222 276.971C407.255 297.736 407.961 347.717 407.961 347.717" fill="black"/>
<path d="M225.644 368.482H429.078C433.559 368.482 437.857 370.262 441.026 373.43C444.194 376.599 445.974 380.896 445.974 385.378V385.378H208.755C208.755 380.898 210.534 376.601 213.702 373.433C216.869 370.264 221.164 368.484 225.644 368.482V368.482Z" fill="#535461"/>
<path d="M246.343 252.33H408.387C411.798 252.33 415.175 253.002 418.326 254.307C421.477 255.612 424.341 257.525 426.752 259.937C429.164 262.349 431.077 265.212 432.383 268.363C433.688 271.514 434.36 274.892 434.36 278.303V372.351H220.37V278.303C220.37 271.414 223.106 264.808 227.977 259.937C232.848 255.066 239.454 252.33 246.343 252.33V252.33Z" fill="#535461"/>
<path d="M327.185 330.295C334.184 330.295 339.858 324.621 339.858 317.622C339.858 310.622 334.184 304.948 327.185 304.948C320.186 304.948 314.511 310.622 314.511 317.622C314.511 324.621 320.186 330.295 327.185 330.295Z" fill="white"/>
<path opacity="0.1" d="M285.129 98.6969C285.129 98.6969 333.558 50.2941 385.79 97.8112" stroke="black" stroke-miterlimit="10"/>
<path d="M398.024 95.6135H393.163V123.178H398.024V95.6135Z" fill="#6A5C99"/>
<path d="M386.676 113.448C391.12 113.448 395.382 115.214 398.524 118.356C401.667 121.498 403.432 125.76 403.432 130.204V131.283C403.432 135.727 401.667 139.989 398.524 143.131C395.382 146.273 391.12 148.039 386.676 148.039V148.039V113.448Z" fill="#FFD037"/>
<path d="M390.998 115.613C390.998 113.523 389.305 111.83 387.216 111.83C385.126 111.83 383.433 113.523 383.433 115.613V145.881C383.433 147.97 385.126 149.664 387.216 149.664C389.305 149.664 390.998 147.97 390.998 145.881V115.613Z" fill="#6A5C99"/>
<path d="M272.395 123.717H277.257V96.1529H272.395V123.717Z" fill="#6A5C99"/>
<path d="M283.744 148.578C279.3 148.578 275.038 146.813 271.896 143.67C268.753 140.528 266.988 136.266 266.988 131.822V130.743C266.988 128.543 267.421 126.364 268.263 124.331C269.105 122.298 270.34 120.451 271.896 118.895C273.451 117.339 275.299 116.105 277.331 115.263C279.364 114.421 281.543 113.988 283.744 113.988V113.988V148.578Z" fill="#FFD037"/>
<path d="M279.422 146.414C279.422 148.503 281.115 150.196 283.204 150.196C285.293 150.196 286.987 148.503 286.987 146.414V116.145C286.987 114.056 285.293 112.363 283.204 112.363C281.115 112.363 279.422 114.056 279.422 116.145V146.414Z" fill="#6A5C99"/>
<path d="M392.59 66.1509C386.004 52.4585 371.659 35.9025 340.737 34.5772V34.5373H340.365L329.409 35.0567V35.11C298.695 36.5219 284.416 53.018 277.85 66.6637C273.476 75.9143 271.155 86.0011 271.044 96.2328L274.826 96.1396L278.609 96.053C278.772 86.9438 280.867 77.973 284.756 69.7338C293.094 52.6051 308.438 43.5012 330.355 42.6555L340.045 42.116C361.975 42.9551 377.326 52.0723 385.657 69.1944C389.552 77.4366 391.652 86.4122 391.817 95.5269L395.6 95.6135L399.383 95.7067C399.274 85.4805 396.957 75.3985 392.59 66.1509V66.1509Z" fill="#FFD037"/>
<path d="M565.403 385.597H49.4684V524.119H565.403V385.597Z" fill="#D6D6E3"/>
<path opacity="0.1" d="M565.403 394.921H49.4684V412.902H565.403V394.921Z" fill="black"/>
<path d="M601 383.599H15.8578V401.581H601V383.599Z" fill="#D6D6E3"/>
</g>
<defs>
<linearGradient id="paint0_linear" x1="307.432" y1="392.59" x2="307.432" y2="31.3006" gradientUnits="userSpaceOnUse">
<stop stop-color="#808080" stop-opacity="0.25"/>
<stop offset="0.54" stop-color="#808080" stop-opacity="0.12"/>
<stop offset="1" stop-color="#808080" stop-opacity="0.1"/>
</linearGradient>
<clipPath id="clip0">
<rect width="600" height="524.119" fill="white"/>
</clipPath>
</defs>
</svg>
